<svg version="1.1" id="Layer_1" xmlns="http://www.w3.org/2000/svg" x="0px" y="0px" viewBox="0 0 179.2 74" enable-background="new 0 0 179.2 74" xml:space="preserve">
<g>
	<path fill="#6B6B6B" d="M0,72.7c0.2,0.1,0.4,0.2,0.7,0.3c0.3,0.1,0.6,0.2,1,0.2c0.5,0,0.9-0.1,1.3-0.4c0.4-0.2,0.6-0.6,0.7-1.2
		c0.1-0.4,0-0.7-0.1-0.9c-0.1-0.3-0.3-0.5-0.5-0.7c-0.2-0.2-0.5-0.4-0.8-0.6C2,69.2,1.8,69,1.5,68.7c-0.2-0.3-0.4-0.6-0.5-0.9
		c-0.1-0.3-0.1-0.7-0.1-1.2c0.1-0.8,0.5-1.3,1-1.7c0.5-0.4,1.1-0.5,1.9-0.5c0.4,0,0.8,0,1.2,0.1c0.3,0.1,0.6,0.2,0.8,0.3l-0.5,0.9
		c-0.1-0.1-0.4-0.2-0.6-0.3c-0.3-0.1-0.6-0.1-1-0.1c-0.5,0-0.9,0.1-1.1,0.4C2.2,65.9,2,66.2,2,66.6c-0.1,0.3,0,0.6,0.1,0.8
		c0.1,0.2,0.3,0.5,0.6,0.7c0.2,0.2,0.5,0.4,0.8,0.7c0.3,0.2,0.5,0.5,0.7,0.7c0.2,0.3,0.4,0.6,0.5,0.9c0.1,0.3,0.1,0.7,0.1,1.2
		c-0.1,0.8-0.5,1.4-1,1.9s-1.2,0.7-2.1,0.7c-0.5,0-1,0-1.3-0.1c-0.3-0.1-0.6-0.2-0.8-0.3L0,72.7z"/>
	<path fill="#6B6B6B" d="M8.7,74l0.7-4c0.1-0.4,0.1-0.7,0.1-0.9c0-0.3,0-0.5,0-0.6c0-0.2-0.1-0.3-0.2-0.4C9.1,68,9,68,8.8,68
		c-0.3,0-0.6,0.1-0.8,0.4c-0.3,0.2-0.4,0.5-0.6,0.8L6.5,74h-1l1.2-6.8h0.7l0,0.7h0c0.2-0.3,0.5-0.5,0.8-0.6c0.3-0.2,0.6-0.2,1-0.2
		c0.3,0,0.6,0.1,0.8,0.2c0.2,0.1,0.3,0.4,0.4,0.8c0.2-0.3,0.5-0.6,0.8-0.7s0.7-0.3,1-0.3c0.3,0,0.5,0,0.7,0.1
		c0.2,0.1,0.3,0.2,0.4,0.4c0.1,0.2,0.1,0.5,0.2,0.8c0,0.3,0,0.7-0.1,1.2L12.8,74h-1l0.8-4.3c0.1-0.6,0.1-1,0.1-1.3
		c-0.1-0.3-0.3-0.4-0.7-0.4c-0.3,0-0.6,0.1-0.9,0.3c-0.2,0.2-0.4,0.5-0.6,0.9L9.6,74H8.7z"/>
	<path fill="#6B6B6B" d="M15.3,67.7c0.3-0.2,0.6-0.3,1-0.4c0.4-0.1,0.8-0.1,1.2-0.1c0.4,0,0.7,0.1,0.9,0.2c0.2,0.1,0.4,0.3,0.5,0.5
		c0.1,0.2,0.1,0.4,0.1,0.7c0,0.2,0,0.5-0.1,0.8c-0.1,0.5-0.2,1.1-0.3,1.6c-0.1,0.5-0.2,1-0.3,1.5c-0.1,0.3-0.1,0.7-0.1,1
		c0,0.3,0,0.6,0,0.8h-0.8l-0.1-0.8h-0.1c-0.2,0.2-0.4,0.4-0.7,0.6c-0.3,0.2-0.7,0.3-1.1,0.3c-0.5,0-0.8-0.2-1.1-0.5
		c-0.2-0.3-0.3-0.8-0.2-1.4c0.1-0.4,0.2-0.7,0.4-1c0.2-0.3,0.4-0.5,0.7-0.6c0.3-0.2,0.6-0.3,0.9-0.3c0.3-0.1,0.7-0.1,1.1-0.1
		c0.1,0,0.2,0,0.3,0s0.2,0,0.3,0c0.1-0.3,0.1-0.5,0.2-0.7c0.1-0.5,0.1-0.9,0-1.1c-0.1-0.2-0.4-0.3-0.8-0.3c-0.2,0-0.5,0-0.8,0.1
		c-0.3,0.1-0.6,0.2-0.8,0.3L15.3,67.7z M17.6,70.9c-0.1,0-0.2,0-0.3,0c-0.1,0-0.2,0-0.3,0c-0.2,0-0.4,0-0.6,0.1
		c-0.2,0-0.4,0.1-0.6,0.2c-0.2,0.1-0.3,0.2-0.4,0.4s-0.2,0.3-0.2,0.6c-0.1,0.4,0,0.6,0.1,0.8c0.1,0.2,0.3,0.3,0.6,0.3
		c0.4,0,0.7-0.1,0.9-0.3c0.2-0.2,0.4-0.4,0.5-0.6L17.6,70.9z"/>
	<path fill="#6B6B6B" d="M20.9,72.4c-0.1,0.3-0.1,0.5,0,0.7c0.1,0.1,0.2,0.2,0.3,0.2c0.2,0,0.4,0,0.7-0.1l0,0.8
		c-0.1,0.1-0.3,0.1-0.5,0.2c-0.2,0-0.4,0.1-0.6,0.1c-0.3,0-0.6-0.1-0.8-0.3c-0.2-0.2-0.2-0.6-0.1-1.1l1.4-8.2h1L20.9,72.4z"/>
	<path fill="#6B6B6B" d="M24,72.4c-0.1,0.3-0.1,0.5,0,0.7c0.1,0.1,0.2,0.2,0.3,0.2c0.2,0,0.4,0,0.7-0.1l0,0.8
		c-0.1,0.1-0.3,0.1-0.5,0.2c-0.2,0-0.4,0.1-0.6,0.1c-0.3,0-0.6-0.1-0.8-0.3c-0.2-0.2-0.2-0.6-0.1-1.1l1.4-8.2h1L24,72.4z"/>
	<path fill="#6B6B6B" d="M34.6,66.7c0,0.2-0.1,0.5-0.2,0.7c-0.1,0.2-0.2,0.5-0.4,0.7c-0.2,0.2-0.3,0.4-0.5,0.6
		c-0.2,0.2-0.4,0.3-0.7,0.4l0,0.1c0.2,0,0.4,0.1,0.6,0.2c0.2,0.1,0.3,0.2,0.5,0.4c0.1,0.2,0.2,0.4,0.2,0.7c0,0.3,0,0.6,0,1
		c-0.1,0.5-0.2,0.9-0.5,1.3c-0.2,0.4-0.5,0.6-0.8,0.9c-0.3,0.2-0.6,0.4-1,0.5c-0.4,0.1-0.7,0.2-1.1,0.2c-0.1,0-0.3,0-0.4,0
		c-0.2,0-0.3,0-0.5,0c-0.2,0-0.4,0-0.6-0.1s-0.3-0.1-0.5-0.1l1.6-9.3c0.3-0.1,0.6-0.1,1-0.1c0.4,0,0.8-0.1,1.2-0.1
		c0.3,0,0.6,0,0.9,0.1c0.3,0.1,0.6,0.2,0.8,0.3c0.2,0.2,0.4,0.4,0.5,0.7C34.6,65.8,34.6,66.2,34.6,66.7z M30.8,73.2
		c0.2,0,0.5,0,0.7-0.1c0.2-0.1,0.4-0.2,0.6-0.3c0.2-0.2,0.3-0.3,0.5-0.6c0.1-0.2,0.2-0.5,0.3-0.8c0.1-0.4,0.1-0.7,0-0.9
		c-0.1-0.2-0.2-0.4-0.3-0.5c-0.2-0.1-0.3-0.2-0.6-0.3c-0.2,0-0.5-0.1-0.7-0.1h-0.9l-0.6,3.5c0.1,0,0.1,0,0.2,0c0.1,0,0.2,0,0.3,0
		c0.1,0,0.2,0,0.3,0C30.7,73.2,30.8,73.2,30.8,73.2z M31.1,68.7c0.1,0,0.3,0,0.4,0c0.2,0,0.3,0,0.4,0c0.4-0.1,0.7-0.4,1-0.7
		c0.3-0.3,0.5-0.7,0.6-1.1c0.1-0.3,0.1-0.5,0-0.7c0-0.2-0.1-0.4-0.2-0.5c-0.1-0.1-0.3-0.2-0.4-0.3c-0.2,0-0.4-0.1-0.6-0.1
		c-0.2,0-0.4,0-0.6,0c-0.2,0-0.3,0-0.4,0l-0.6,3.3H31.1z"/>
	<path fill="#6B6B6B" d="M36.9,67.2l-0.7,4.1c-0.1,0.7-0.1,1.2,0,1.5c0.1,0.3,0.3,0.4,0.7,0.4c0.2,0,0.4,0,0.5-0.1
		c0.2-0.1,0.3-0.2,0.5-0.3c0.1-0.1,0.3-0.3,0.4-0.4c0.1-0.2,0.2-0.3,0.3-0.5l0.8-4.7h1l-0.9,4.8c-0.1,0.3-0.1,0.7-0.1,1
		c0,0.3-0.1,0.7-0.1,0.9h-0.7l-0.1-0.9h0c-0.2,0.3-0.5,0.6-0.8,0.8s-0.7,0.3-1.1,0.3c-0.3,0-0.5,0-0.7-0.1c-0.2-0.1-0.4-0.2-0.5-0.4
		c-0.1-0.2-0.2-0.4-0.2-0.8c0-0.3,0-0.7,0.1-1.3l0.8-4.4H36.9z"/>
	<path fill="#6B6B6B" d="M40.7,72.9c0.2,0.1,0.4,0.2,0.6,0.3c0.2,0.1,0.5,0.1,0.7,0.1c0.3,0,0.6-0.1,0.8-0.2
		c0.2-0.1,0.4-0.4,0.4-0.7c0-0.3,0-0.5-0.1-0.7c-0.1-0.2-0.2-0.3-0.4-0.5c-0.2-0.1-0.4-0.3-0.6-0.4c-0.2-0.1-0.4-0.3-0.6-0.4
		c-0.2-0.2-0.3-0.4-0.4-0.6c-0.1-0.2-0.1-0.5,0-0.9c0.1-0.6,0.3-1,0.7-1.3c0.4-0.3,0.8-0.4,1.4-0.4c0.4,0,0.7,0,0.9,0.1
		c0.3,0.1,0.5,0.2,0.7,0.3l-0.4,0.8c-0.2-0.1-0.3-0.2-0.6-0.2C43.8,68,43.6,68,43.3,68c-0.3,0-0.6,0.1-0.7,0.2
		c-0.2,0.1-0.3,0.3-0.3,0.6c0,0.2,0,0.4,0.1,0.6c0.1,0.2,0.2,0.3,0.4,0.4c0.2,0.1,0.4,0.3,0.6,0.4c0.2,0.1,0.4,0.3,0.5,0.5
		c0.2,0.2,0.3,0.4,0.4,0.7c0.1,0.3,0.1,0.6,0,1c0,0.3-0.1,0.5-0.2,0.7c-0.1,0.2-0.3,0.4-0.5,0.6c-0.2,0.2-0.4,0.3-0.7,0.4
		c-0.3,0.1-0.6,0.1-0.9,0.1c-0.4,0-0.7,0-1-0.1c-0.3-0.1-0.5-0.2-0.7-0.3L40.7,72.9z"/>
	<path fill="#6B6B6B" d="M46.4,67.2h1L46.2,74h-1L46.4,67.2z M46.6,65.2c0-0.2,0.1-0.4,0.3-0.5c0.1-0.1,0.3-0.2,0.5-0.2
		s0.4,0.1,0.5,0.2C48,64.8,48,65,48,65.2c0,0.2-0.1,0.4-0.3,0.5c-0.2,0.1-0.3,0.2-0.5,0.2s-0.3-0.1-0.4-0.2
		C46.6,65.6,46.6,65.4,46.6,65.2z"/>
	<path fill="#6B6B6B" d="M51.4,74l0.7-4.1c0.1-0.7,0.1-1.2,0-1.5C52,68.1,51.8,68,51.4,68c-0.4,0-0.7,0.1-0.9,0.3
		c-0.3,0.2-0.5,0.5-0.7,0.8L48.9,74h-1l1.2-6.8h0.7l0,0.7h0c0.2-0.2,0.5-0.4,0.8-0.6c0.3-0.2,0.7-0.3,1.1-0.3c0.3,0,0.5,0,0.7,0.1
		c0.2,0.1,0.4,0.2,0.5,0.4c0.1,0.2,0.2,0.5,0.2,0.8c0,0.3,0,0.7-0.1,1.2L52.4,74H51.4z"/>
	<path fill="#6B6B6B" d="M57.9,73.5c-0.3,0.2-0.6,0.4-0.9,0.5c-0.4,0.1-0.7,0.2-1.1,0.2c-0.4,0-0.8-0.1-1.1-0.2s-0.5-0.4-0.6-0.7
		c-0.1-0.3-0.2-0.7-0.2-1.1c0-0.4,0-0.9,0.1-1.5c0.2-1.2,0.6-2,1.1-2.6c0.5-0.6,1.2-0.9,2-0.9c0.3,0,0.5,0,0.7,0.1
		c0.2,0.1,0.4,0.2,0.6,0.4c0.2,0.2,0.3,0.5,0.3,0.8c0.1,0.3,0,0.8-0.1,1.3c0,0.2-0.1,0.3-0.1,0.5c0,0.2-0.1,0.4-0.1,0.5h-3.4
		C55,71.1,55,71.5,55,71.8c0,0.3,0.1,0.6,0.2,0.8s0.2,0.4,0.4,0.5c0.2,0.1,0.4,0.2,0.8,0.2c0.2,0,0.5,0,0.7-0.1
		c0.3-0.1,0.5-0.2,0.6-0.3L57.9,73.5z M57.8,69.9c0.1-0.7,0.1-1.2,0-1.5C57.6,68.1,57.4,68,57,68c-0.4,0-0.8,0.2-1.1,0.5
		c-0.3,0.3-0.5,0.8-0.7,1.5H57.8z"/>
	<path fill="#6B6B6B" d="M59.4,72.9c0.2,0.1,0.4,0.2,0.6,0.3c0.2,0.1,0.5,0.1,0.7,0.1c0.3,0,0.6-0.1,0.8-0.2
		c0.2-0.1,0.4-0.4,0.4-0.7c0-0.3,0-0.5-0.1-0.7c-0.1-0.2-0.2-0.3-0.4-0.5c-0.2-0.1-0.4-0.3-0.6-0.4c-0.2-0.1-0.4-0.3-0.6-0.4
		c-0.2-0.2-0.3-0.4-0.4-0.6c-0.1-0.2-0.1-0.5,0-0.9c0.1-0.6,0.3-1,0.7-1.3c0.4-0.3,0.8-0.4,1.4-0.4c0.4,0,0.7,0,0.9,0.1
		c0.3,0.1,0.5,0.2,0.7,0.3l-0.4,0.8c-0.2-0.1-0.3-0.2-0.6-0.2C62.5,68,62.3,68,62.1,68c-0.3,0-0.6,0.1-0.7,0.2
		c-0.2,0.1-0.3,0.3-0.3,0.6c0,0.2,0,0.4,0.1,0.6c0.1,0.2,0.2,0.3,0.4,0.4c0.2,0.1,0.4,0.3,0.6,0.4c0.2,0.1,0.4,0.3,0.5,0.5
		c0.2,0.2,0.3,0.4,0.4,0.7c0.1,0.3,0.1,0.6,0,1c0,0.3-0.1,0.5-0.2,0.7c-0.1,0.2-0.3,0.4-0.5,0.6c-0.2,0.2-0.4,0.3-0.7,0.4
		c-0.3,0.1-0.6,0.1-0.9,0.1c-0.4,0-0.7,0-1-0.1c-0.3-0.1-0.5-0.2-0.7-0.3L59.4,72.9z"/>
	<path fill="#6B6B6B" d="M63.9,72.9c0.2,0.1,0.4,0.2,0.6,0.3c0.2,0.1,0.5,0.1,0.7,0.1c0.3,0,0.6-0.1,0.8-0.2
		c0.2-0.1,0.4-0.4,0.4-0.7c0-0.3,0-0.5-0.1-0.7c-0.1-0.2-0.2-0.3-0.4-0.5c-0.2-0.1-0.4-0.3-0.6-0.4c-0.2-0.1-0.4-0.3-0.6-0.4
		c-0.2-0.2-0.3-0.4-0.4-0.6c-0.1-0.2-0.1-0.5,0-0.9c0.1-0.6,0.3-1,0.7-1.3c0.4-0.3,0.8-0.4,1.4-0.4c0.4,0,0.7,0,0.9,0.1
		c0.3,0.1,0.5,0.2,0.7,0.3l-0.4,0.8c-0.2-0.1-0.3-0.2-0.6-0.2C67,68,66.8,68,66.6,68c-0.3,0-0.6,0.1-0.7,0.2
		c-0.2,0.1-0.3,0.3-0.3,0.6c0,0.2,0,0.4,0.1,0.6c0.1,0.2,0.2,0.3,0.4,0.4c0.2,0.1,0.4,0.3,0.6,0.4c0.2,0.1,0.4,0.3,0.5,0.5
		c0.2,0.2,0.3,0.4,0.4,0.7c0.1,0.3,0.1,0.6,0,1c0,0.3-0.1,0.5-0.2,0.7c-0.1,0.2-0.3,0.4-0.5,0.6c-0.2,0.2-0.4,0.3-0.7,0.4
		c-0.3,0.1-0.6,0.1-0.9,0.1c-0.4,0-0.7,0-1-0.1c-0.3-0.1-0.5-0.2-0.7-0.3L63.9,72.9z"/>
	<path fill="#6B6B6B" d="M71.3,72.7c0.2,0.1,0.4,0.2,0.7,0.3c0.3,0.1,0.6,0.2,1,0.2c0.5,0,0.9-0.1,1.3-0.4c0.4-0.2,0.6-0.6,0.7-1.2
		c0.1-0.4,0-0.7-0.1-0.9c-0.1-0.3-0.3-0.5-0.5-0.7c-0.2-0.2-0.5-0.4-0.8-0.6c-0.3-0.2-0.5-0.4-0.7-0.7c-0.2-0.3-0.4-0.6-0.5-0.9
		c-0.1-0.3-0.1-0.7-0.1-1.2c0.1-0.8,0.5-1.3,1-1.7c0.5-0.4,1.1-0.5,1.9-0.5c0.4,0,0.8,0,1.2,0.1c0.3,0.1,0.6,0.2,0.8,0.3l-0.5,0.9
		c-0.1-0.1-0.4-0.2-0.6-0.3c-0.3-0.1-0.6-0.1-1-0.1c-0.5,0-0.9,0.1-1.1,0.4c-0.3,0.2-0.4,0.5-0.5,0.9c-0.1,0.3,0,0.6,0.1,0.8
		c0.1,0.2,0.3,0.5,0.6,0.7c0.2,0.2,0.5,0.4,0.8,0.7c0.3,0.2,0.5,0.5,0.7,0.7c0.2,0.3,0.4,0.6,0.5,0.9c0.1,0.3,0.1,0.7,0.1,1.2
		c-0.1,0.8-0.5,1.4-1,1.9s-1.2,0.7-2.1,0.7c-0.5,0-1,0-1.3-0.1c-0.3-0.1-0.6-0.2-0.8-0.3L71.3,72.7z"/>
	<path fill="#6B6B6B" d="M77.1,70.6c0.2-1.2,0.6-2.1,1.1-2.7c0.5-0.6,1.2-0.9,1.9-0.9c0.8,0,1.4,0.3,1.7,0.9
		c0.3,0.6,0.3,1.5,0.1,2.7c-0.2,1.2-0.6,2.1-1.1,2.7c-0.5,0.6-1.2,0.9-1.9,0.9c-0.8,0-1.4-0.3-1.7-0.9S76.9,71.8,77.1,70.6z
		 M78.1,70.6C78.1,71,78,71.4,78,71.7s0,0.6,0.1,0.8c0.1,0.2,0.2,0.4,0.3,0.5c0.2,0.1,0.4,0.2,0.6,0.2c0.5,0,0.9-0.2,1.2-0.6
		c0.3-0.4,0.5-1.1,0.7-2c0.1-0.4,0.1-0.7,0.1-1.1c0-0.3,0-0.6-0.1-0.8c-0.1-0.2-0.2-0.4-0.3-0.5C80.5,68,80.2,68,80,68
		c-0.5,0-0.8,0.2-1.2,0.6C78.5,69,78.3,69.7,78.1,70.6z"/>
	<path fill="#6B6B6B" d="M83.9,72.4c-0.1,0.3-0.1,0.5,0,0.7c0.1,0.1,0.2,0.2,0.3,0.2c0.2,0,0.4,0,0.7-0.1l0,0.8
		c-0.1,0.1-0.3,0.1-0.5,0.2c-0.2,0-0.4,0.1-0.6,0.1c-0.3,0-0.6-0.1-0.8-0.3c-0.2-0.2-0.2-0.6-0.1-1.1l1.4-8.2h1L83.9,72.4z"/>
	<path fill="#6B6B6B" d="M87.7,67.2L87,71.4c-0.1,0.7-0.1,1.2,0,1.5c0.1,0.3,0.3,0.4,0.7,0.4c0.2,0,0.4,0,0.5-0.1
		c0.2-0.1,0.3-0.2,0.5-0.3c0.1-0.1,0.3-0.3,0.4-0.4c0.1-0.2,0.2-0.3,0.3-0.5l0.8-4.7h1l-0.9,4.8c-0.1,0.3-0.1,0.7-0.1,1
		c0,0.3-0.1,0.7-0.1,0.9h-0.7l-0.1-0.9h0c-0.2,0.3-0.5,0.6-0.8,0.8s-0.7,0.3-1.1,0.3c-0.3,0-0.5,0-0.7-0.1c-0.2-0.1-0.4-0.2-0.5-0.4
		c-0.1-0.2-0.2-0.4-0.2-0.8c0-0.3,0-0.7,0.1-1.3l0.8-4.4H87.7z"/>
	<path fill="#6B6B6B" d="M92,67.2h0.8l0.2-1.3l1-0.3l-0.3,1.6h1.5l-0.2,0.9h-1.5l-0.7,4c-0.1,0.4-0.1,0.7,0,0.9
		c0.1,0.2,0.2,0.3,0.4,0.3c0.2,0,0.3,0,0.5-0.1s0.3-0.1,0.5-0.2l0.1,0.8c-0.2,0.1-0.4,0.2-0.7,0.2c-0.2,0.1-0.5,0.1-0.8,0.1
		c-0.5,0-0.7-0.1-0.9-0.4c-0.1-0.3-0.2-0.8,0-1.4l0.7-4.2h-0.8L92,67.2z"/>
	<path fill="#6B6B6B" d="M96.4,67.2h1L96.2,74h-1L96.4,67.2z M96.6,65.2c0-0.2,0.1-0.4,0.3-0.5c0.1-0.1,0.3-0.2,0.5-0.2
		s0.4,0.1,0.5,0.2C98,64.8,98,65,98,65.2c0,0.2-0.1,0.4-0.3,0.5c-0.2,0.1-0.3,0.2-0.5,0.2s-0.3-0.1-0.4-0.2
		C96.6,65.6,96.6,65.4,96.6,65.2z"/>
	<path fill="#6B6B6B" d="M98.3,70.6c0.2-1.2,0.6-2.1,1.1-2.7c0.5-0.6,1.2-0.9,1.9-0.9c0.8,0,1.4,0.3,1.7,0.9
		c0.3,0.6,0.3,1.5,0.1,2.7c-0.2,1.2-0.6,2.1-1.1,2.7c-0.5,0.6-1.2,0.9-1.9,0.9c-0.8,0-1.4-0.3-1.7-0.9C98.1,72.7,98,71.8,98.3,70.6z
		 M99.3,70.6c-0.1,0.4-0.1,0.8-0.1,1.1s0,0.6,0.1,0.8c0.1,0.2,0.2,0.4,0.3,0.5c0.2,0.1,0.4,0.2,0.6,0.2c0.5,0,0.9-0.2,1.2-0.6
		c0.3-0.4,0.5-1.1,0.7-2c0.1-0.4,0.1-0.7,0.1-1.1c0-0.3,0-0.6-0.1-0.8c-0.1-0.2-0.2-0.4-0.3-0.5c-0.2-0.1-0.4-0.2-0.6-0.2
		c-0.5,0-0.8,0.2-1.2,0.6C99.7,69,99.4,69.7,99.3,70.6z"/>
	<path fill="#6B6B6B" d="M107.2,74l0.7-4.1c0.1-0.7,0.1-1.2,0-1.5c-0.1-0.3-0.4-0.5-0.8-0.5c-0.4,0-0.7,0.1-0.9,0.3
		c-0.3,0.2-0.5,0.5-0.7,0.8l-0.9,4.9h-1l1.2-6.8h0.7l0,0.7h0c0.2-0.2,0.5-0.4,0.8-0.6c0.3-0.2,0.7-0.3,1.1-0.3c0.3,0,0.5,0,0.7,0.1
		c0.2,0.1,0.4,0.2,0.5,0.4c0.1,0.2,0.2,0.5,0.2,0.8c0,0.3,0,0.7-0.1,1.2l-0.8,4.4H107.2z"/>
	<path fill="#6B6B6B" d="M109.7,72.9c0.2,0.1,0.4,0.2,0.6,0.3c0.2,0.1,0.5,0.1,0.7,0.1c0.3,0,0.6-0.1,0.8-0.2
		c0.2-0.1,0.4-0.4,0.4-0.7c0-0.3,0-0.5-0.1-0.7c-0.1-0.2-0.2-0.3-0.4-0.5c-0.2-0.1-0.4-0.3-0.6-0.4s-0.4-0.3-0.6-0.4
		c-0.2-0.2-0.3-0.4-0.4-0.6c-0.1-0.2-0.1-0.5,0-0.9c0.1-0.6,0.3-1,0.7-1.3c0.4-0.3,0.8-0.4,1.4-0.4c0.4,0,0.7,0,0.9,0.1
		c0.3,0.1,0.5,0.2,0.7,0.3l-0.4,0.8c-0.2-0.1-0.3-0.2-0.6-0.2c-0.2-0.1-0.4-0.1-0.7-0.1c-0.3,0-0.6,0.1-0.7,0.2
		c-0.2,0.1-0.3,0.3-0.3,0.6c0,0.2,0,0.4,0.1,0.6c0.1,0.2,0.2,0.3,0.4,0.4c0.2,0.1,0.4,0.3,0.6,0.4c0.2,0.1,0.4,0.3,0.5,0.5
		s0.3,0.4,0.4,0.7c0.1,0.3,0.1,0.6,0,1c0,0.3-0.1,0.5-0.2,0.7c-0.1,0.2-0.3,0.4-0.5,0.6c-0.2,0.2-0.4,0.3-0.7,0.4
		c-0.3,0.1-0.6,0.1-0.9,0.1c-0.4,0-0.7,0-1-0.1c-0.3-0.1-0.5-0.2-0.7-0.3L109.7,72.9z"/>
	<path fill="#6B6B6B" d="M117.4,71.5c0.1-0.4,0.2-0.7,0.3-1c0.2-0.3,0.4-0.6,0.6-0.9c0.2-0.3,0.5-0.5,0.7-0.7
		c0.3-0.2,0.5-0.4,0.8-0.6c-0.1-0.3-0.2-0.7-0.3-1c-0.1-0.3-0.1-0.7,0-1.1c0-0.2,0.1-0.4,0.2-0.6c0.1-0.2,0.2-0.4,0.4-0.6
		c0.2-0.2,0.4-0.3,0.6-0.4s0.5-0.1,0.8-0.1c0.3,0,0.6,0,0.8,0.1c0.2,0.1,0.3,0.2,0.4,0.4c0.1,0.1,0.2,0.3,0.2,0.5c0,0.2,0,0.4,0,0.6
		c-0.1,0.4-0.3,0.8-0.6,1.2c-0.3,0.4-0.8,0.8-1.3,1.2c0.1,0.3,0.2,0.5,0.3,0.8c0.1,0.3,0.2,0.5,0.3,0.8c0.1,0.3,0.2,0.5,0.4,0.8
		c0.1,0.3,0.3,0.5,0.4,0.7c0.2-0.2,0.4-0.5,0.6-0.9c0.2-0.4,0.4-0.7,0.5-1.1l0.7,0.3c-0.1,0.2-0.2,0.3-0.3,0.6
		c-0.1,0.2-0.2,0.4-0.4,0.7c-0.1,0.2-0.3,0.4-0.4,0.6c-0.1,0.2-0.3,0.4-0.4,0.5c0.2,0.4,0.4,0.6,0.6,0.8c0.2,0.2,0.3,0.4,0.5,0.5
		l-0.7,0.7c-0.4-0.2-0.7-0.7-1.1-1.3c-0.2,0.2-0.3,0.3-0.5,0.5c-0.2,0.1-0.4,0.3-0.6,0.4c-0.2,0.1-0.4,0.2-0.7,0.3
		c-0.3,0.1-0.5,0.1-0.8,0.1c-0.4,0-0.7-0.1-1-0.2c-0.3-0.1-0.5-0.3-0.7-0.5c-0.2-0.2-0.3-0.5-0.4-0.8
		C117.3,72.3,117.3,71.9,117.4,71.5z M121.6,72.2c-0.2-0.3-0.3-0.5-0.5-0.8c-0.1-0.3-0.3-0.6-0.4-0.9c-0.1-0.3-0.2-0.6-0.3-0.9
		c-0.1-0.3-0.2-0.5-0.2-0.8c-0.2,0.2-0.4,0.4-0.6,0.5c-0.2,0.2-0.4,0.4-0.5,0.6c-0.2,0.2-0.3,0.4-0.4,0.7c-0.1,0.2-0.2,0.5-0.2,0.8
		c-0.1,0.3-0.1,0.6,0,0.8c0,0.2,0.1,0.4,0.3,0.6c0.1,0.2,0.3,0.3,0.5,0.4c0.2,0.1,0.4,0.1,0.6,0.1c0.2,0,0.3,0,0.5-0.1
		c0.2-0.1,0.4-0.1,0.5-0.2c0.2-0.1,0.3-0.2,0.5-0.3C121.4,72.5,121.5,72.4,121.6,72.2z M120.5,66.1c0,0.3-0.1,0.5,0,0.8
		c0,0.3,0.1,0.5,0.2,0.8c0.4-0.3,0.7-0.6,0.9-0.9c0.2-0.3,0.3-0.5,0.3-0.7c0-0.3,0-0.5,0-0.7c-0.1-0.2-0.2-0.3-0.5-0.3
		c-0.3,0-0.4,0.1-0.6,0.3C120.7,65.6,120.6,65.8,120.5,66.1z"/>
	<path fill="#6B6B6B" d="M129.7,64.5h1l-1.7,9.5h-1L129.7,64.5z"/>
	<path fill="#6B6B6B" d="M134.3,74l0.7-4.1c0.1-0.7,0.1-1.2,0-1.5c-0.1-0.3-0.4-0.5-0.8-0.5c-0.4,0-0.7,0.1-0.9,0.3
		c-0.3,0.2-0.5,0.5-0.7,0.8l-0.9,4.9h-1l1.2-6.8h0.7l0,0.7h0c0.2-0.2,0.5-0.4,0.8-0.6c0.3-0.2,0.7-0.3,1.1-0.3c0.3,0,0.5,0,0.7,0.1
		c0.2,0.1,0.4,0.2,0.5,0.4c0.1,0.2,0.2,0.5,0.2,0.8c0,0.3,0,0.7-0.1,1.2l-0.8,4.4H134.3z"/>
	<path fill="#6B6B6B" d="M136.8,72.9c0.2,0.1,0.4,0.2,0.6,0.3c0.2,0.1,0.5,0.1,0.7,0.1c0.3,0,0.6-0.1,0.8-0.2
		c0.2-0.1,0.4-0.4,0.4-0.7c0-0.3,0-0.5-0.1-0.7c-0.1-0.2-0.2-0.3-0.4-0.5c-0.2-0.1-0.4-0.3-0.6-0.4s-0.4-0.3-0.6-0.4
		c-0.2-0.2-0.3-0.4-0.4-0.6c-0.1-0.2-0.1-0.5,0-0.9c0.1-0.6,0.3-1,0.7-1.3c0.4-0.3,0.8-0.4,1.4-0.4c0.4,0,0.7,0,0.9,0.1
		c0.3,0.1,0.5,0.2,0.7,0.3l-0.4,0.8c-0.2-0.1-0.3-0.2-0.6-0.2c-0.2-0.1-0.4-0.1-0.7-0.1c-0.3,0-0.6,0.1-0.7,0.2
		c-0.2,0.1-0.3,0.3-0.3,0.6c0,0.2,0,0.4,0.1,0.6c0.1,0.2,0.2,0.3,0.4,0.4c0.2,0.1,0.4,0.3,0.6,0.4c0.2,0.1,0.4,0.3,0.5,0.5
		s0.3,0.4,0.4,0.7c0.1,0.3,0.1,0.6,0,1c0,0.3-0.1,0.5-0.2,0.7c-0.1,0.2-0.3,0.4-0.5,0.6c-0.2,0.2-0.4,0.3-0.7,0.4
		c-0.3,0.1-0.6,0.1-0.9,0.1c-0.4,0-0.7,0-1-0.1c-0.3-0.1-0.5-0.2-0.7-0.3L136.8,72.9z"/>
	<path fill="#6B6B6B" d="M142.4,67.2h0.7l0,0.7h0.1c0.4-0.6,1-0.9,1.7-0.9c0.7,0,1.2,0.3,1.5,0.8c0.3,0.5,0.3,1.4,0.1,2.6
		c-0.1,0.6-0.2,1.1-0.4,1.5c-0.2,0.5-0.4,0.8-0.7,1.2c-0.3,0.3-0.6,0.6-0.9,0.7s-0.7,0.2-1.1,0.2c-0.3,0-0.5,0-0.6,0
		c-0.1,0-0.3-0.1-0.5-0.2l-0.5,2.8h-1L142.4,67.2z M142.4,72.9c0.1,0.1,0.2,0.2,0.4,0.3c0.1,0.1,0.4,0.1,0.6,0.1
		c0.5,0,0.9-0.2,1.3-0.7c0.4-0.5,0.6-1.2,0.8-2.1c0.1-0.4,0.1-0.7,0.1-1c0-0.3,0-0.6-0.1-0.8c-0.1-0.2-0.2-0.4-0.3-0.5
		c-0.1-0.1-0.3-0.2-0.6-0.2c-0.7,0-1.2,0.4-1.5,1.2L142.4,72.9z"/>
	<path fill="#6B6B6B" d="M148.4,67.2h1l-1.2,6.8h-1L148.4,67.2z M148.5,65.2c0-0.2,0.1-0.4,0.3-0.5c0.1-0.1,0.3-0.2,0.5-0.2
		s0.4,0.1,0.5,0.2c0.1,0.1,0.1,0.3,0.1,0.5c0,0.2-0.1,0.4-0.3,0.5c-0.2,0.1-0.3,0.2-0.5,0.2s-0.3-0.1-0.4-0.2
		C148.5,65.6,148.5,65.4,148.5,65.2z"/>
	<path fill="#6B6B6B" d="M151.1,67.2h0.7l0,0.7h0c0.2-0.3,0.4-0.5,0.6-0.6c0.2-0.1,0.5-0.2,0.8-0.2c0.2,0,0.4,0,0.7,0.1l-0.4,1
		c-0.2-0.1-0.4-0.1-0.6-0.1c-0.3,0-0.5,0.1-0.7,0.2c-0.2,0.2-0.4,0.4-0.5,0.7l-0.9,5h-1L151.1,67.2z"/>
	<path fill="#6B6B6B" d="M154.6,67.7c0.3-0.2,0.6-0.3,1-0.4c0.4-0.1,0.8-0.1,1.2-0.1c0.4,0,0.7,0.1,0.9,0.2c0.2,0.1,0.4,0.3,0.5,0.5
		c0.1,0.2,0.1,0.4,0.1,0.7c0,0.2,0,0.5-0.1,0.8c-0.1,0.5-0.2,1.1-0.3,1.6c-0.1,0.5-0.2,1-0.3,1.5c-0.1,0.3-0.1,0.7-0.1,1
		c0,0.3,0,0.6,0,0.8h-0.8l-0.1-0.8h-0.1c-0.2,0.2-0.4,0.4-0.7,0.6c-0.3,0.2-0.7,0.3-1.1,0.3c-0.5,0-0.8-0.2-1.1-0.5
		c-0.2-0.3-0.3-0.8-0.2-1.4c0.1-0.4,0.2-0.7,0.4-1c0.2-0.3,0.4-0.5,0.7-0.6c0.3-0.2,0.6-0.3,0.9-0.3c0.3-0.1,0.7-0.1,1.1-0.1
		c0.1,0,0.2,0,0.3,0s0.2,0,0.3,0c0.1-0.3,0.1-0.5,0.2-0.7c0.1-0.5,0.1-0.9,0-1.1c-0.1-0.2-0.4-0.3-0.8-0.3c-0.2,0-0.5,0-0.8,0.1
		c-0.3,0.1-0.6,0.2-0.8,0.3L154.6,67.7z M156.9,70.9c-0.1,0-0.2,0-0.3,0c-0.1,0-0.2,0-0.3,0c-0.2,0-0.4,0-0.6,0.1
		c-0.2,0-0.4,0.1-0.6,0.2s-0.3,0.2-0.4,0.4c-0.1,0.2-0.2,0.3-0.2,0.6c-0.1,0.4,0,0.6,0.1,0.8c0.1,0.2,0.3,0.3,0.6,0.3
		c0.4,0,0.7-0.1,0.9-0.3s0.4-0.4,0.5-0.6L156.9,70.9z"/>
	<path fill="#6B6B6B" d="M159.4,67.2h0.8l0.2-1.3l1-0.3l-0.3,1.6h1.5l-0.2,0.9H161l-0.7,4c-0.1,0.4-0.1,0.7,0,0.9
		c0.1,0.2,0.2,0.3,0.4,0.3c0.2,0,0.3,0,0.5-0.1s0.3-0.1,0.5-0.2l0.1,0.8c-0.2,0.1-0.4,0.2-0.7,0.2c-0.2,0.1-0.5,0.1-0.8,0.1
		c-0.5,0-0.7-0.1-0.9-0.4c-0.1-0.3-0.2-0.8,0-1.4l0.7-4.2h-0.8L159.4,67.2z"/>
	<path fill="#6B6B6B" d="M163.8,67.2h1l-1.2,6.8h-1L163.8,67.2z M164,65.2c0-0.2,0.1-0.4,0.3-0.5c0.1-0.1,0.3-0.2,0.5-0.2
		s0.4,0.1,0.5,0.2c0.1,0.1,0.1,0.3,0.1,0.5c0,0.2-0.1,0.4-0.3,0.5c-0.2,0.1-0.3,0.2-0.5,0.2s-0.3-0.1-0.4-0.2
		C164,65.6,164,65.4,164,65.2z"/>
	<path fill="#6B6B6B" d="M165.6,70.6c0.2-1.2,0.6-2.1,1.1-2.7c0.5-0.6,1.2-0.9,1.9-0.9c0.8,0,1.4,0.3,1.7,0.9
		c0.3,0.6,0.3,1.5,0.1,2.7c-0.2,1.2-0.6,2.1-1.1,2.7c-0.5,0.6-1.2,0.9-1.9,0.9c-0.8,0-1.4-0.3-1.7-0.9
		C165.5,72.7,165.4,71.8,165.6,70.6z M166.7,70.6c-0.1,0.4-0.1,0.8-0.1,1.1s0,0.6,0.1,0.8c0.1,0.2,0.2,0.4,0.3,0.5
		c0.2,0.1,0.4,0.2,0.6,0.2c0.5,0,0.9-0.2,1.2-0.6c0.3-0.4,0.5-1.1,0.7-2c0.1-0.4,0.1-0.7,0.1-1.1c0-0.3,0-0.6-0.1-0.8
		c-0.1-0.2-0.2-0.4-0.3-0.5c-0.2-0.1-0.4-0.2-0.6-0.2c-0.5,0-0.8,0.2-1.2,0.6C167.1,69,166.8,69.7,166.7,70.6z"/>
	<path fill="#6B6B6B" d="M174.6,74l0.7-4.1c0.1-0.7,0.1-1.2,0-1.5c-0.1-0.3-0.4-0.5-0.8-0.5c-0.4,0-0.7,0.1-0.9,0.3
		c-0.3,0.2-0.5,0.5-0.7,0.8l-0.9,4.9h-1l1.2-6.8h0.7l0,0.7h0c0.2-0.2,0.5-0.4,0.8-0.6c0.3-0.2,0.7-0.3,1.1-0.3c0.3,0,0.5,0,0.7,0.1
		c0.2,0.1,0.4,0.2,0.5,0.4c0.1,0.2,0.2,0.5,0.2,0.8c0,0.3,0,0.7-0.1,1.2l-0.8,4.4H174.6z"/>
</g>
<g>
	<path stroke="#231F20" stroke-width="0.5322" d="M0.6,24.2h3.2V3.9H0.6V1.1h11.8c1.9,0,3.3,0.2,4.6,0.8c2.1,0.9,3.6,3,3.6,5.8
		c0,2.5-1.2,4.6-3.3,5.6v0.1c2.8,0.8,4.3,3.3,4.3,6.3c0,3.4-2.1,6-4.8,6.9C15.5,27,14.3,27,12.9,27H0.6V24.2z M12.9,12
		c2.3,0,3.8-1.6,3.8-4c0-1.5-0.6-2.8-1.7-3.4c-0.7-0.4-1.6-0.5-2.7-0.5H7.5V12H12.9z M13,24c0.7,0,1.6-0.1,2.3-0.4
		c1.5-0.6,2.5-2.2,2.5-4.2c0-2.7-1.8-4.4-4.5-4.4H7.5v9H13z"/>
	<path stroke="#231F20" stroke-width="0.5322" d="M27.1,3.9h-3.3V1.1h10.2v2.8h-3.3v13.4c0,1.7,0.3,3.2,1,4.2
		c1.1,1.7,3.1,2.6,5.6,2.6c2.5,0,4.5-1,5.6-2.7c0.6-1.1,1-2.5,1-4.2V3.9h-3.3V1.1h10.2v2.8h-3.2v13.4c0,2.5-0.7,4.7-1.8,6.3
		c-1.8,2.5-4.9,3.8-8.4,3.8c-3.7,0-6.8-1.4-8.5-3.8c-1.2-1.7-1.7-3.8-1.7-6.3V3.9z"/>
	<path stroke="#231F20" stroke-width="0.5322" d="M55.6,19.2v1.9c0,1.9,2.5,3,5.2,3c3,0,5.1-1.4,5.1-4c0-3-3-4-6.2-5.2
		c-3.4-1.3-6.9-2.8-6.9-7.3c0-4.9,3.9-7,8.3-7C65,0.7,69,2.1,69,5v3h-3.4V6.2c0-1.5-2.3-2.3-4.4-2.3c-2.5,0-4.6,1.2-4.6,3.6
		c0,2.8,2.6,3.7,5.5,4.8c3.8,1.4,7.6,2.9,7.6,7.7c0,5-4,7.5-8.8,7.5c-4,0-8.6-1.8-8.6-5.5v-2.7H55.6z"/>
	<path stroke="#231F20" stroke-width="0.5322" d="M72.9,24.2h3.2V3.9h-3.2V1.1h10.2v2.8h-3.3v20.2h3.3V27H72.9V24.2z"/>
	<path stroke="#231F20" stroke-width="0.5322" d="M87.3,24.2h3.2V3.9h-3.2V1.1h6.9l12.7,18.6c0.4,0.7,0.9,1.9,0.9,1.9h0.1
		c0,0-0.2-1.3-0.2-2.1V3.9h-3.3V1.1h10.2v2.8h-3.3V27h-3.6L95.1,8.5c-0.5-0.7-0.9-1.9-0.9-1.9h-0.1c0,0,0.2,1.3,0.1,2.1v15.5h3.3V27
		H87.3V24.2z"/>
	<path stroke="#231F20" stroke-width="0.5322" d="M117.9,24.2h3.2V3.9h-3.2V1.1h18.8v6h-3.2v-3h-8.7v8.3h9.2v3h-9.2V24h9.3v-3.1h3.2
		V27h-19.4V24.2z"/>
	<path stroke="#231F20" stroke-width="0.5322" d="M143.9,19.2v1.9c0,1.9,2.5,3,5.2,3c3,0,5.1-1.4,5.1-4c0-3-3-4-6.2-5.2
		c-3.4-1.3-6.9-2.8-6.9-7.3c0-4.9,3.9-7,8.3-7c3.9,0,7.9,1.5,7.9,4.3v3h-3.4V6.2c0-1.5-2.3-2.3-4.4-2.3c-2.5,0-4.6,1.2-4.6,3.6
		c0,2.8,2.6,3.7,5.5,4.8c3.8,1.4,7.6,2.9,7.6,7.7c0,5-4,7.5-8.8,7.5c-4,0-8.6-1.8-8.6-5.5v-2.7H143.9z"/>
	<path stroke="#231F20" stroke-width="0.5322" d="M164.6,19.2v1.9c0,1.9,2.5,3,5.2,3c3,0,5.1-1.4,5.1-4c0-3-3-4-6.2-5.2
		c-3.4-1.3-6.9-2.8-6.9-7.3c0-4.9,3.9-7,8.3-7c3.9,0,7.9,1.5,7.9,4.3v3h-3.4V6.2c0-1.5-2.3-2.3-4.4-2.3c-2.5,0-4.6,1.2-4.6,3.6
		c0,2.8,2.6,3.7,5.5,4.8c3.8,1.4,7.6,2.9,7.6,7.7c0,5-4,7.5-8.8,7.5c-4,0-8.6-1.8-8.6-5.5v-2.7H164.6z"/>
	<path d="M0.2,52.7h2.5v-16H0.2v-2.2h5.4l10.1,14.7c0.3,0.6,0.7,1.5,0.7,1.5h0.1c0,0-0.1-1-0.1-1.7V36.7h-2.6v-2.2h8.1v2.2h-2.6
		v18.2h-2.8L6.3,40.3c-0.4-0.6-0.7-1.5-0.7-1.5H5.5c0,0,0.1,1,0.1,1.7v12.2h2.6v2.3H0.2V52.7z"/>
	<path d="M23.8,52.7h2.5v-16h-2.5v-2.2h14.8v4.7h-2.5v-2.4h-6.8v6.6h7.2v2.4h-7.2v6.7h7.3v-2.5h2.5v4.8H23.8V52.7z"/>
	<path d="M40.6,34.5h7.3v2.2h-2.4l3.2,13.4c0.1,0.7,0.2,1.5,0.2,1.5h0.1c0,0,0.1-0.8,0.3-1.5l4.3-15.6H56l4.3,15.6
		c0.2,0.7,0.3,1.5,0.3,1.5h0.1c0,0,0.1-0.8,0.2-1.5L64,36.7h-2.4v-2.2h7.3v2.2h-2l-4.6,18.2h-3.3l-4-14.5c-0.2-0.7-0.3-1.6-0.3-1.6
		h-0.1c0,0-0.1,0.9-0.3,1.6l-4,14.5h-3.3l-4.5-18.2h-2V34.5z"/>
	<path d="M72.9,48.8v1.5c0,1.5,1.9,2.4,4.1,2.4c2.3,0,4.1-1.1,4.1-3.1c0-2.4-2.4-3.2-4.9-4.1c-2.7-1-5.4-2.2-5.4-5.8
		c0-3.9,3.1-5.5,6.5-5.5c3.1,0,6.2,1.2,6.2,3.4v2.4h-2.7v-1.4c0-1.2-1.8-1.8-3.5-1.8c-2,0-3.6,0.9-3.6,2.8c0,2.2,2.1,2.9,4.3,3.8
		c3,1.1,6,2.3,6,6.1c0,3.9-3.2,5.9-7,5.9c-3.2,0-6.7-1.4-6.7-4.3v-2.1H72.9z"/>
	<path d="M93.4,52.7h2.5v-16h-2.5v-2.2h8.7c1.7,0,3,0.1,4.3,0.5c3.9,1.2,6.5,4.8,6.5,9.7c0,5-2.5,8.4-6.5,9.7
		c-1.3,0.4-2.7,0.5-4.3,0.5h-8.7V52.7z M102,52.5c1.3,0,2.4-0.1,3.5-0.5c2.8-1,4.5-3.6,4.5-7.3c0-3.8-1.7-6.4-4.4-7.4
		c-1.1-0.4-2.2-0.5-3.5-0.5h-3.1v15.7H102z"/>
	<path d="M113.9,52.7h2l6.5-18.2h3.3l6.5,18.2h2v2.3H127v-2.3h2.2l-1.6-4.5h-7.2l-1.6,4.5h2.2v2.3h-7.1V52.7z M126.9,45.8l-2.5-7.1
		c-0.3-0.8-0.3-1.6-0.3-1.6H124c0,0-0.1,0.7-0.3,1.6l-2.5,7.1H126.9z"/>
	<path d="M135.6,52.7h2.5v-16h-2.5v-2.2h8v2.2H141v16h2.6v2.3h-8V52.7z"/>
	<path d="M146.3,52.7h2.5V36.8h-2.5v-2.4h8v2.4h-2.6v15.7h7.1v-3.3h2.5v5.7h-15.1V52.7z"/>
	<path d="M165.9,52.7h2.6v-6.4l-5.7-9.6h-1.9v-2.2h7v2.2h-2.1l3.8,6.4c0.2,0.4,0.4,0.9,0.4,0.9h0.1c0,0,0.2-0.4,0.4-0.9l3.8-6.4
		h-2.1v-2.2h7v2.2h-1.9l-5.7,9.6v6.4h2.6v2.3h-8.1V52.7z"/>
</g>
</svg>
